<?xml version="1.0" encoding="utf-8"?>
<!-- Generator: Adobe Illustrator 19.2.0, SVG Export Plug-In . SVG Version: 6.00 Build 0)  -->
<svg version="1.1" xmlns="http://www.w3.org/2000/svg" xmlns:xlink="http://www.w3.org/1999/xlink" x="0px" y="0px"
	 viewBox="0 0 960 560" style="enable-background:new 0 0 960 560;" xml:space="preserve">
<style type="text/css">
	.st0{fill:#FF0000;stroke:#FFFFFF;stroke-miterlimit:10;}
	.st1{fill:none;stroke:#FFFFFF;stroke-width:3;stroke-miterlimit:10;}
	.st2{fill:#FF0000;stroke:#FFFFFF;stroke-width:3;stroke-miterlimit:10;}
</style>
<g id="Layer_1">
	<path class="st0" d="M711.6,523.6H248.4c-6.6,0-12-5.4-12-12V48.4c0-6.6,5.4-12,12-12h463.3c6.6,0,12,5.4,12,12v463.3
		C723.6,518.2,718.2,523.6,711.6,523.6z"/>
</g>
<g id="Layer_2">
	<path class="st1" d="M327.5,186.1c0,0,77.3-13.1,116.7,48.8s71.3,67.5,124.3,67.5v-19.7l79.4,35.5L571.3,360l0.6-19
		c0,0-102,8.6-144.2-52.9c-41.4-60.5-53.3-67.7-100.3-67.7V186.1z"/>
	<path class="st1" d="M403.4,272.5c-24.4,43.2-75.9,43.3-75.9,43.3v35.4c0,0,60.8,3.9,95.8-34.7"/>
	<path class="st1" d="M455.2,226.5c0,0,45.3-32,116.3-29.2v-20.8l74.2,41l-77.2,38v-21.6c0,0-56.9-2-90,28.6"/>
	<path class="st2" d="M652.9,167.3H312.3c0-61.7,76.3-111.8,170.3-111.8S652.9,105.5,652.9,167.3z"/>
	<path class="st2" d="M312.3,376.9h340.6c0,18.6-19.4,56.9-49.3,69.2c-30.9,12.8-208.6,11.1-239.3-1
		C332.8,432.7,312.3,396,312.3,376.9z"/>
</g>
</svg>
